<svg xmlns="http://www.w3.org/2000/svg" viewBox="0 0 200 200">
  <defs>
    <linearGradient id="metalGrad" x1="0%" y1="0%" x2="0%" y2="100%">
      <stop offset="0%" style="stop-color:#9CA3AF;stop-opacity:1" />
      <stop offset="100%" style="stop-color:#6B7280;stop-opacity:1" />
    </linearGradient>
  </defs>
  <rect width="200" height="200" rx="16" fill="#F8FAFC" />
  
  <!-- Screw head -->
  <ellipse cx="100" cy="50" rx="30" ry="12" fill="#6B7280" />
  <ellipse cx="100" cy="45" rx="30" ry="12" fill="url(#metalGrad)" />
  
  <!-- Phillips head slot -->
  <rect x="97" y="38" width="6" height="14" rx="1" fill="#4B5563" />
  <rect x="93" y="42" width="14" height="6" rx="1" fill="#4B5563" />
  
  <!-- Screw shaft -->
  <rect x="92" y="55" width="16" height="100" rx="2" fill="url(#metalGrad)" />
  
  <!-- Thread lines -->
  <g stroke="#4B5563" stroke-width="1.5" fill="none">
    <path d="M92 70 L108 75" />
    <path d="M92 85 L108 90" />
    <path d="M92 100 L108 105" />
    <path d="M92 115 L108 120" />
    <path d="M92 130 L108 135" />
    <path d="M92 145 L108 150" />
  </g>
  
  <!-- Screw tip -->
  <path d="M92 155 L100 170 L108 155" fill="url(#metalGrad)" />
  
  <text x="100" y="188" text-anchor="middle" font-family="Arial, sans-serif" font-size="11" font-weight="600" fill="#374151">Fasteners</text>
</svg>
