<svg xmlns="http://www.w3.org/2000/svg" viewBox="0 0 200 200">
  <defs>
    <linearGradient id="dvtGrad" x1="0%" y1="0%" x2="100%" y2="100%">
      <stop offset="0%" style="stop-color:#22C55E;stop-opacity:1" />
      <stop offset="100%" style="stop-color:#166534;stop-opacity:1" />
    </linearGradient>
    <linearGradient id="waterGrad" x1="0%" y1="0%" x2="0%" y2="100%">
      <stop offset="0%" style="stop-color:#3B82F6;stop-opacity:1" />
      <stop offset="100%" style="stop-color:#1D4ED8;stop-opacity:1" />
    </linearGradient>
  </defs>
  <!-- Background Circle -->
  <circle cx="100" cy="100" r="95" fill="url(#dvtGrad)" />
  <!-- Water Droplet -->
  <path d="M100 35 Q130 75 130 100 A30 30 0 1 1 70 100 Q70 75 100 35" fill="url(#waterGrad)" />
  <ellipse cx="85" cy="95" rx="8" ry="12" fill="white" opacity="0.4" />
  <!-- Sprinkler spray lines -->
  <g stroke="white" stroke-width="2" stroke-linecap="round" opacity="0.9">
    <line x1="100" y1="130" x2="60" y2="155" />
    <line x1="100" y1="130" x2="75" y2="160" />
    <line x1="100" y1="130" x2="90" y2="165" />
    <line x1="100" y1="130" x2="100" y2="168" />
    <line x1="100" y1="130" x2="110" y2="165" />
    <line x1="100" y1="130" x2="125" y2="160" />
    <line x1="100" y1="130" x2="140" y2="155" />
  </g>
  <!-- Water drops -->
  <circle cx="55" cy="158" r="4" fill="white" opacity="0.8" />
  <circle cx="72" cy="165" r="3" fill="white" opacity="0.8" />
  <circle cx="88" cy="170" r="4" fill="white" opacity="0.8" />
  <circle cx="112" cy="170" r="3" fill="white" opacity="0.8" />
  <circle cx="128" cy="165" r="4" fill="white" opacity="0.8" />
  <circle cx="145" cy="158" r="3" fill="white" opacity="0.8" />
  <!-- Sprinkler head -->
  <rect x="92" y="125" width="16" height="12" rx="2" fill="white" />
  <!-- DVT Text -->
  <text x="100" y="192" text-anchor="middle" font-family="Arial, sans-serif" font-size="11" font-weight="bold" fill="white">DE VISSCHERE</text>
</svg>
